# xmcd
#
# Track frame offsets:
#	150
#	12026
#	22047
#	34473
#	48260
#	60262
#	72432
#	83119
#	94155
#	104836
#	117762
#	130049
#	140628
#	153653
#	165884
#	179362
#	189434
#	201554
#	217160
#	226187
#
# Disc length: 3240 seconds
#
# Revision: 0
# Processed by: cddbd v1.5.2PL0 Copyright (c) Steve Scherf et al.
# Submitted via: EasyCDDAExtractor 16.0.8.2
#
DISCID=1a0ca614
DTITLE=Συλλογικός δίσκος - Όταν τα σλόου τα έλεγαν μπλουζ 2-2
DYEAR=2011
DGENRE=Ξένη σλόου
TTITLE0=The Platters - The great pretender
TTITLE1=Elvis Presley - Loving you
TTITLE2=James Brown - Please, please, please
TTITLE3=Johnny Mathis - Chances are
TTITLE4=Dalida - Come Prima
TTITLE5=Paul Anka - Puppy love
TTITLE6=Sam Cooke - Summertime
TTITLE7=The Platters - Ebb tide
TTITLE8=Paul Anka - I miss you so
TTITLE9=Brenda Lee - Pretend
TTITLE10=The Miracles - Bad girl
TTITLE11=Ray Peterson - Answer me
TTITLE12=Nat King Cole - Somewhere along the way
TTITLE13=The Pastels - Been so long
TTITLE14=Debbie Reynolds - Just for a touch of your love
TTITLE15=Neil Sedaka - I must be dreaming
TTITLE16=The Platters - The sound and the fury
TTITLE17=Caterina Valente - Nocturne for the blues
TTITLE18=Ricky Nelson - So long
TTITLE19=Johnnie Ray - Day by day
EXTD=
EXTT0=
EXTT1=
EXTT2=
EXTT3=
EXTT4=
EXTT5=
EXTT6=
EXTT7=
EXTT8=
EXTT9=
EXTT10=
EXTT11=
EXTT12=
EXTT13=
EXTT14=
EXTT15=
EXTT16=
EXTT17=
EXTT18=
EXTT19=
PLAYORDER=
